<?xml version="1.0" standalone="no"?>
<!DOCTYPE svg PUBLIC "-//W3C//DTD SVG 20010904//EN"
 "http://www.w3.org/TR/2001/REC-SVG-20010904/DTD/svg10.dtd">
<svg version="1.0" xmlns="http://www.w3.org/2000/svg"
 width="1024.000000pt" height="1024.000000pt" viewBox="0 0 1024.000000 1024.000000"
 preserveAspectRatio="xMidYMid meet">
<metadata>
Created by potrace 1.11, written by Peter Selinger 2001-2013
</metadata>
<g transform="translate(0.000000,1024.000000) scale(0.100000,-0.100000)"
fill="#000000" stroke="none">
<path d="M0 5120 l0 -5120 5120 0 5120 0 0 5120 0 5120 -5120 0 -5120 0 0
-5120z m5450 4290 c0 -17 -5 -30 -12 -30 -9 0 -8 -4 2 -10 12 -8 10 -10 -8
-10 -13 0 -20 -4 -17 -10 3 -5 15 -10 25 -10 14 0 21 -12 29 -50 18 -84 18
-84 -39 -77 -29 4 -50 2 -50 -3 0 -14 -74 -12 -88 2 -9 9 -15 9 -24 0 -7 -7
-39 -13 -72 -14 -43 -1 -50 -3 -23 -5 53 -6 46 -23 -10 -24 -27 -1 -57 -3 -68
-4 -11 -1 -38 -3 -60 -5 -87 -7 79 -16 193 -10 63 3 119 2 125 -1 7 -3 40 -3
75 0 54 6 62 5 62 -10 0 -9 3 -31 6 -48 5 -26 3 -32 -17 -40 -23 -9 -21 -13
10 -15 8 -1 16 -6 18 -13 3 -8 -9 -12 -37 -11 -57 1 -61 -9 -6 -17 38 -6 46
-11 50 -34 14 -74 76 -509 76 -531 -1 -13 -2 -13 -13 1 -12 16 -51 17 -124 4
-18 -3 -34 -1 -38 5 -5 7 -12 5 -21 -7 -8 -11 -13 -13 -14 -5 0 13 -90 14 -90
0 0 -18 184 -36 195 -18 8 13 45 13 45 1 0 -6 15 -11 33 -13 26 -2 33 -8 35
-30 3 -26 3 -26 -32 -16 -26 8 -46 8 -73 0 -21 -7 -45 -11 -53 -10 -30 3 -60
-2 -60 -10 0 -8 48 -11 177 -11 l51 -1 9 -62 8 -62 80 -18 c44 -10 151 -39
238 -65 l158 -47 27 31 c15 16 42 52 61 79 45 64 161 206 181 221 8 6 19 8 24
3 10 -10 57 10 50 21 -3 5 -17 9 -32 9 -41 0 -12 20 31 22 41 1 49 20 16 35
-21 9 -20 11 22 60 24 29 64 79 89 113 25 33 50 66 56 73 6 7 18 24 28 40 13
19 27 27 50 28 28 1 29 2 7 8 -23 6 -23 8 30 71 29 36 61 73 69 84 8 10 25 30
38 44 12 14 22 29 22 33 0 17 21 9 46 -16 14 -14 28 -23 32 -21 4 2 18 -2 32
-10 14 -7 19 -13 12 -14 -26 0 0 -20 27 -20 15 0 36 -6 46 -14 17 -12 15 -13
-22 -11 -36 3 -40 1 -36 -16 4 -12 15 -19 32 -20 44 -2 105 -6 119 -7 17 -3
15 -41 -4 -49 -8 -3 -13 -11 -10 -19 3 -7 -3 -15 -12 -17 -9 -3 -2 -5 16 -6
24 -1 31 -5 26 -13 -4 -7 2 -5 13 5 23 20 40 22 45 5 5 -13 38 -4 38 11 0 5
-9 13 -21 16 -11 4 -18 9 -15 12 5 5 126 -59 205 -109 40 -25 42 -28 20 -29
-13 -1 -35 -3 -49 -5 -88 -12 -200 -15 -200 -6 0 6 -6 9 -14 6 -7 -3 -20 2
-29 10 -20 21 -44 20 -56 -1 -7 -14 -13 -15 -33 -6 -20 9 -30 7 -55 -8 -26
-16 -32 -17 -42 -5 -9 10 -27 13 -71 9 -45 -4 -65 -2 -85 11 -14 9 -25 12 -25
7 0 -12 -58 -30 -89 -28 -13 1 -26 -3 -28 -9 -2 -7 6 -10 23 -6 18 3 31 0 38
-11 19 -25 116 -27 116 -2 0 11 11 15 38 15 l37 -1 -24 -19 c-13 -11 -18 -20
-12 -20 9 0 9 -3 0 -13 -9 -9 -47 -12 -147 -9 -147 4 -165 1 -155 -24 5 -14
16 -16 67 -11 44 4 66 2 80 -9 11 -8 14 -14 8 -14 -7 0 -12 -7 -12 -15 0 -19
2 -19 45 5 66 37 151 46 139 15 -3 -7 11 -19 36 -29 23 -9 39 -20 36 -24 -6
-10 -66 -3 -66 7 0 4 -13 6 -30 5 -17 -1 -28 3 -27 10 2 13 -3 12 -57 -7 -21
-8 -42 -20 -46 -27 -5 -8 -43 -16 -103 -20 -111 -9 -133 -17 -90 -35 39 -17
233 -31 233 -17 0 6 23 15 50 21 63 14 80 14 80 1 0 -5 -19 -10 -42 -11 -84
-1 -87 -16 -5 -20 44 -2 81 -1 84 4 2 4 11 4 19 -1 8 -5 39 -4 68 1 56 10 92
4 81 -13 -11 -18 39 -11 73 10 35 22 92 27 92 9 0 -7 -14 -10 -35 -7 -19 2
-35 1 -35 -2 0 -10 72 -30 82 -24 5 3 20 3 33 0 l25 -6 -19 -48 c-10 -26 -53
-132 -96 -237 -42 -104 -88 -217 -100 -250 -38 -101 -66 -156 -75 -150 -4 3
-6 -4 -3 -15 8 -31 -16 -80 -41 -81 -17 -1 -17 -2 -3 -6 20 -5 22 -14 6 -30
-19 -19 -2 -59 38 -89 59 -45 230 -214 259 -256 15 -21 33 -38 40 -38 8 0 42
13 76 30 35 16 99 43 143 59 44 17 147 57 228 91 81 33 153 60 159 60 5 0 38
13 72 29 33 16 97 41 140 56 43 15 88 32 100 40 12 7 39 18 61 25 22 6 54 18
70 25 36 16 119 45 120 42 1 -1 12 -20 26 -42 43 -71 48 -80 61 -105 7 -14 31
-54 53 -90 23 -36 48 -78 57 -95 8 -16 33 -59 55 -95 22 -36 55 -93 74 -128
l34 -63 -26 -22 c-38 -32 -126 -102 -281 -224 -242 -190 -289 -227 -338 -263
-26 -19 -83 -62 -127 -95 l-78 -60 -443 -3 -442 -2 -30 47 c-75 124 -145 225
-206 303 -83 104 -274 297 -369 372 -327 258 -711 429 -1120 499 -109 19 -170
23 -370 23 -209 1 -257 -2 -370 -22 -525 -94 -955 -312 -1325 -673 -42 -41
-89 -91 -104 -111 -20 -26 -36 -38 -53 -38 -21 0 -23 -2 -13 -15 10 -12 7 -21
-16 -48 -16 -18 -50 -63 -76 -100 -46 -64 -50 -67 -90 -69 l-43 -1 37 -4 38
-4 -20 -40 c-13 -25 -27 -39 -40 -39 -13 0 -18 -5 -14 -15 4 -9 1 -29 -6 -45
l-12 -30 -427 0 -426 0 -29 25 c-16 14 -32 25 -36 25 -3 0 -15 8 -26 18 -17
15 -69 55 -330 253 -41 32 -111 88 -157 126 -45 38 -107 87 -137 108 -30 22
-76 57 -102 79 -40 33 -46 41 -35 54 6 8 11 17 10 18 -2 4 42 101 56 124 9 13
150 257 212 366 12 21 29 52 37 67 26 52 27 52 257 -43 77 -32 155 -63 173
-70 17 -7 32 -16 32 -21 0 -5 6 -9 14 -9 20 0 125 -35 176 -59 48 -22 314
-128 418 -167 35 -13 75 -32 89 -44 14 -11 32 -20 39 -20 7 0 31 24 53 53 37
50 158 173 250 254 l43 39 -42 109 c-23 61 -58 151 -77 200 -38 101 -39 103
-81 200 -16 39 -42 102 -56 140 -15 39 -34 85 -42 103 -8 18 -12 38 -8 43 3 6
0 18 -8 27 -8 9 -20 35 -27 57 -7 22 -24 64 -38 93 -14 29 -22 59 -19 67 3 8
2 15 -2 15 -10 0 -42 54 -52 90 -10 35 4 50 73 80 27 12 68 35 92 51 24 16 58
34 74 40 17 6 31 15 31 20 0 5 6 9 14 9 8 0 21 6 28 13 13 14 48 34 103 60 17
8 66 37 110 65 l79 52 24 -23 c13 -12 28 -31 33 -42 5 -11 38 -54 74 -95 36
-41 82 -100 102 -130 20 -30 56 -75 79 -100 23 -25 49 -60 59 -79 17 -33 17
-34 -4 -28 -12 3 -21 1 -21 -4 0 -5 13 -9 29 -9 23 0 36 -9 61 -42 18 -26 29
-51 26 -62 -6 -22 19 -50 35 -41 12 8 97 -80 135 -138 13 -20 46 -61 72 -90
26 -30 56 -65 67 -80 l20 -27 87 30 c48 17 154 48 235 68 l148 38 12 79 c6 44
12 81 12 83 1 1 49 2 109 2 128 0 120 15 -10 19 -51 1 -93 3 -94 4 -1 1 10 79
23 172 13 94 32 224 41 290 l17 120 33 3 c18 2 30 8 27 13 -4 5 8 9 24 9 17 0
31 -4 31 -10 0 -13 76 -13 140 1 73 16 65 33 -12 25 -35 -4 -94 -8 -133 -9
-38 -1 -78 -6 -87 -11 -14 -6 -18 -4 -18 13 0 17 6 21 30 21 19 0 30 5 30 14
0 9 13 16 33 19 19 2 8 4 -27 5 l-59 2 7 43 c4 23 10 61 13 85 4 32 10 42 24
42 10 0 20 4 23 9 4 5 -3 7 -14 4 -23 -6 -25 9 -14 91 6 38 10 46 28 46 20 1
20 2 4 14 -10 7 -18 21 -18 30 0 14 33 16 365 16 l365 0 0 -30z m14 -222 c-3
-4 -14 -8 -25 -8 -11 0 -18 4 -14 9 3 6 14 9 25 8 10 -1 16 -5 14 -9z m-87 -4
c-3 -3 -12 -4 -19 -1 -8 3 -5 6 6 6 11 1 17 -2 13 -5z m-687 -144 c0 -5 -4
-10 -10 -10 -5 0 -10 5 -10 10 0 6 5 10 10 10 6 0 10 -4 10 -10z m2276 -411
c3 -6 16 -8 28 -5 27 7 68 -3 60 -15 -9 -15 -124 -11 -124 4 0 26 23 36 36 16z
m164 1 c0 -5 -6 -10 -14 -10 -8 0 -18 5 -21 10 -3 6 3 10 14 10 12 0 21 -4 21
-10z m193 3 c-7 -2 -19 -2 -25 0 -7 3 -2 5 12 5 14 0 19 -2 13 -5z m136 3 c-2
-2 -17 -6 -34 -10 -22 -5 -26 -4 -15 4 14 9 59 15 49 6z m-155 -55 c3 -5 -1
-11 -9 -15 -15 -6 -29 7 -18 18 9 9 21 8 27 -3z m-317 -7 c-3 -3 -12 -4 -19
-1 -8 3 -5 6 6 6 11 1 17 -2 13 -5z m83 -4 c0 -5 -13 -10 -29 -10 -17 0 -33 5
-36 10 -4 6 8 10 29 10 20 0 36 -4 36 -10z m173 -27 c-7 -2 -19 -2 -25 0 -7 3
-2 5 12 5 14 0 19 -2 13 -5z m107 -9 c0 -17 -22 -14 -28 4 -2 7 3 12 12 12 9
0 16 -7 16 -16z m-291 2 c-11 -9 -69 -14 -69 -6 0 6 17 10 37 10 20 0 34 -2
32 -4z m162 -48 c-13 -4 -27 -5 -33 -2 -16 10 11 22 35 16 20 -5 20 -5 -2 -14z
m-316 2 c3 -6 19 -8 36 -5 16 3 29 1 29 -5 0 -5 -4 -11 -10 -11 -17 -2 -110
-4 -110 -2 0 28 41 45 55 23z m515 0 c0 -5 -4 -10 -9 -10 -6 0 -13 5 -16 10
-3 6 1 10 9 10 9 0 16 -4 16 -10z m-120 -36 c0 -2 -12 -4 -27 -4 -21 0 -24 3
-14 9 13 8 41 5 41 -5z m90 -40 c0 -2 -17 -4 -37 -3 -33 1 -35 2 -13 8 23 7
50 4 50 -5z m-1965 -1448 c338 -70 614 -209 857 -430 81 -73 145 -145 150
-167 4 -16 -99 -18 -901 -19 -305 0 -552 -2 -549 -5 3 -3 338 -5 746 -5 l740
0 35 -42 c124 -156 239 -392 297 -613 48 -183 55 -246 55 -460 -1 -229 -19
-344 -85 -545 -134 -407 -426 -771 -781 -972 -195 -110 -337 -167 -529 -210
-96 -21 -128 -23 -370 -23 -294 1 -344 7 -543 71 -134 44 -247 95 -365 168
-190 115 -298 207 -452 387 -182 211 -321 507 -381 809 -19 96 -23 148 -24
315 0 245 22 383 95 591 55 158 156 348 244 462 36 46 45 52 81 54 37 1 38 1
7 5 l-33 4 41 49 c256 305 664 530 1070 589 127 19 140 19 310 15 126 -2 194
-9 285 -28z m2561 -680 l-59 -53 32 -96 c18 -53 47 -156 66 -229 25 -100 38
-134 52 -140 10 -4 151 -25 313 -48 707 -98 866 -121 888 -125 l22 -5 0 -364
0 -364 -27 -6 c-16 -3 -111 -17 -213 -31 -102 -14 -279 -39 -395 -56 -115 -16
-293 -41 -395 -55 -102 -13 -193 -27 -202 -30 -10 -3 -19 -21 -23 -47 -4 -23
-30 -118 -57 -212 -28 -93 -53 -178 -55 -188 -7 -22 23 -56 97 -110 67 -49 75
-55 125 -102 22 -21 58 -49 80 -63 57 -36 210 -151 276 -209 67 -57 64 -55
209 -165 63 -49 133 -103 155 -122 l40 -35 -19 -33 c-11 -18 -40 -71 -66 -118
-70 -127 -158 -279 -179 -309 -10 -14 -33 -54 -50 -89 -18 -35 -38 -65 -46
-68 -17 -7 -101 21 -197 65 -37 17 -86 38 -110 46 -106 39 -151 57 -268 105
-187 78 -279 115 -450 181 l-155 60 -45 -48 c-25 -27 -65 -71 -90 -98 -25 -28
-80 -82 -123 -120 l-79 -70 21 -55 c12 -30 25 -64 30 -75 4 -11 32 -81 60
-155 29 -74 59 -148 66 -165 8 -16 33 -77 55 -135 22 -58 45 -114 50 -125 5
-11 30 -72 55 -135 25 -63 50 -124 55 -135 34 -76 70 -172 70 -187 0 -12 -22
-29 -67 -51 -38 -17 -73 -36 -80 -42 -6 -5 -33 -23 -60 -38 -26 -15 -128 -75
-226 -133 -98 -58 -185 -103 -192 -100 -8 3 -42 43 -74 88 -33 46 -71 94 -84
108 -13 14 -35 41 -48 60 -13 19 -28 40 -34 45 -7 6 -27 30 -46 55 -41 54 -25
34 -162 207 -61 78 -155 196 -207 264 -52 67 -102 131 -110 141 -16 20 -18 19
-142 -20 -70 -23 -174 -51 -233 -64 -88 -19 -107 -26 -110 -43 -2 -11 -22
-153 -45 -315 -49 -353 -46 -341 -65 -334 -8 4 -15 1 -15 -5 0 -6 7 -11 15
-11 12 0 14 -8 10 -37 -3 -21 -19 -135 -35 -253 -17 -118 -33 -230 -36 -247
l-6 -33 -363 0 -362 0 -11 67 c-7 38 -23 154 -38 258 -14 105 -36 262 -49 350
-13 88 -36 246 -50 350 -14 105 -28 200 -30 211 -4 18 -17 24 -72 34 -38 7
-139 35 -225 61 -87 27 -162 49 -167 49 -7 0 -81 -92 -237 -296 -17 -22 -38
-49 -47 -60 -36 -44 -144 -182 -172 -219 -16 -22 -34 -45 -40 -51 -27 -29
-151 -186 -219 -277 -33 -44 -65 -81 -72 -84 -7 -2 -68 28 -136 67 -68 40
-161 95 -208 122 -47 28 -129 75 -182 105 -62 34 -98 61 -98 71 0 9 20 64 43
122 24 58 68 164 96 235 29 72 77 191 108 265 30 74 72 178 93 230 21 52 59
146 84 207 l46 113 -42 36 c-24 21 -100 95 -169 166 -70 70 -131 128 -137 128
-15 0 -266 -100 -542 -215 -30 -13 -91 -37 -135 -55 -44 -18 -95 -39 -112 -46
-18 -8 -50 -21 -70 -28 -21 -8 -90 -36 -154 -64 -180 -76 -148 -92 -274 131
-60 105 -140 244 -177 307 -37 63 -68 120 -68 127 0 15 99 96 375 305 6 4 53
42 105 84 52 42 129 101 170 131 41 31 87 67 103 81 15 14 27 23 27 20 0 -3
17 10 37 29 21 18 68 57 105 86 37 29 67 59 68 68 0 8 -14 55 -31 105 -17 49
-45 147 -63 219 l-33 130 -104 13 c-57 7 -246 34 -419 59 -173 24 -394 55
-490 68 -96 14 -190 27 -207 30 l-33 6 0 364 0 365 23 5 c12 2 292 43 621 90
330 46 602 88 606 92 4 5 15 44 24 88 10 44 38 145 63 224 24 79 43 144 41
145 -29 19 -97 80 -94 84 5 4 816 11 816 7 0 -1 -23 -51 -51 -110 -171 -366
-248 -828 -206 -1225 27 -246 83 -476 164 -670 53 -129 54 -120 -8 -121 -45 0
-50 -2 -30 -10 31 -12 19 -24 -39 -37 -41 -10 -35 -10 53 -10 l98 1 53 -90
c327 -553 798 -929 1394 -1112 560 -172 1188 -121 1717 139 262 128 440 256
646 460 201 199 332 383 459 645 109 224 165 401 211 660 30 173 33 527 6 705
-38 242 -108 474 -208 688 l-48 102 432 0 432 -1 -59 -53z"/>
<path d="M4910 9370 c-10 -7 0 -8 34 -5 27 3 52 7 54 10 10 9 -73 5 -88 -5z"/>
<path d="M5249 9364 c-11 -14 -10 -15 11 -12 13 1 25 9 28 16 5 17 -23 15 -39
-4z"/>
<path d="M5373 9373 c9 -2 25 -2 35 0 9 3 1 5 -18 5 -19 0 -27 -2 -17 -5z"/>
<path d="M5038 9363 c12 -2 30 -2 40 0 9 3 -1 5 -23 4 -22 0 -30 -2 -17 -4z"/>
<path d="M4835 9150 c-3 -5 -1 -10 4 -10 6 0 11 5 11 10 0 6 -2 10 -4 10 -3 0
-8 -4 -11 -10z"/>
<path d="M4948 9063 c7 -3 16 -2 19 1 4 3 -2 6 -13 5 -11 0 -14 -3 -6 -6z"/>
<path d="M5075 9060 c3 -5 13 -10 21 -10 8 0 14 5 14 10 0 6 -9 10 -21 10 -11
0 -17 -4 -14 -10z"/>
<path d="M5200 9060 c14 -4 19 -8 13 -9 -7 -1 -13 -5 -13 -10 0 -4 42 -9 93
-9 91 -1 92 13 2 19 l-40 2 45 7 c37 6 30 7 -40 8 -56 0 -76 -3 -60 -8z"/>
<path d="M5045 9050 c3 -5 8 -10 11 -10 2 0 4 5 4 10 0 6 -5 10 -11 10 -5 0
-7 -4 -4 -10z"/>
<path d="M5390 9036 c0 -2 7 -7 16 -10 8 -3 12 -2 9 4 -6 10 -25 14 -25 6z"/>
<path d="M5160 9006 c0 -4 -10 -6 -23 -3 -12 4 -29 2 -37 -3 -13 -9 -13 -11 0
-19 9 -6 19 -6 26 0 12 10 22 11 134 9 87 -1 161 11 142 23 -17 11 -242 4
-242 -7z"/>
<path d="M5330 8953 c0 -9 -17 -14 -52 -15 -36 -1 -43 -2 -20 -5 28 -4 32 -8
32 -34 0 -29 2 -30 34 -24 18 4 36 3 40 -3 7 -11 106 6 106 19 0 5 -25 9 -55
9 -54 0 -77 15 -32 22 14 2 23 11 25 25 3 20 -1 22 -37 20 -26 -1 -41 -6 -41
-14z"/>
<path d="M6808 8923 c6 -2 18 -2 25 0 6 3 1 5 -13 5 -14 0 -19 -2 -12 -5z"/>
<path d="M5120 8911 c0 -5 7 -11 14 -14 10 -4 13 -1 9 9 -6 15 -23 19 -23 5z"/>
<path d="M6940 8909 c0 -7 -11 -9 -29 -6 -30 6 -71 -1 -71 -12 0 -9 78 -7 112
3 16 4 25 12 22 17 -8 13 -34 11 -34 -2z"/>
<path d="M5169 8887 c5 -5 24 -7 42 -5 33 3 33 4 -8 8 -23 3 -39 2 -34 -3z"/>
<path d="M6778 8803 c7 -3 16 -2 19 1 4 3 -2 6 -13 5 -11 0 -14 -3 -6 -6z"/>
<path d="M6818 8803 c7 -3 16 -2 19 1 4 3 -2 6 -13 5 -11 0 -14 -3 -6 -6z"/>
<path d="M6858 8793 c6 -2 18 -2 25 0 6 3 1 5 -13 5 -14 0 -19 -2 -12 -5z"/>
<path d="M4650 8780 c0 -5 9 -10 20 -10 11 0 20 5 20 10 0 6 -9 10 -20 10 -11
0 -20 -4 -20 -10z"/>
<path d="M5120 8590 c0 -5 7 -10 16 -10 8 0 12 5 9 10 -3 6 -10 10 -16 10 -5
0 -9 -4 -9 -10z"/>
<path d="M5070 8580 c0 -5 6 -10 14 -10 8 0 18 5 21 10 3 6 -3 10 -14 10 -12
0 -21 -4 -21 -10z"/>
<path d="M5181 8586 c11 -9 69 -14 69 -6 0 6 -16 10 -37 10 -20 0 -34 -2 -32
-4z"/>
<path d="M6558 8573 c6 -2 18 -2 25 0 6 3 1 5 -13 5 -14 0 -19 -2 -12 -5z"/>
<path d="M3166 8555 c7 -16 39 -20 48 -6 6 9 -16 21 -40 21 -8 0 -11 -6 -8
-15z"/>
<path d="M2755 8550 c3 -5 13 -10 21 -10 8 0 14 5 14 10 0 6 -9 10 -21 10 -11
0 -17 -4 -14 -10z"/>
<path d="M5148 8543 c7 -3 16 -2 19 1 4 3 -2 6 -13 5 -11 0 -14 -3 -6 -6z"/>
<path d="M5230 8540 c0 -5 4 -10 9 -10 6 0 13 5 16 10 3 6 -1 10 -9 10 -9 0
-16 -4 -16 -10z"/>
<path d="M6665 8520 c3 -5 13 -10 21 -10 8 0 14 5 14 10 0 6 -9 10 -21 10 -11
0 -17 -4 -14 -10z"/>
<path d="M3580 8499 c-19 -5 -14 -7 22 -8 26 -1 50 4 53 9 7 11 -33 11 -75 -1z"/>
<path d="M3155 8461 c-3 -6 3 -15 14 -20 24 -14 31 -14 31 -1 0 14 -38 32 -45
21z"/>
<path d="M4996 8449 c-23 -18 -30 -18 -27 3 0 4 -16 5 -37 2 -20 -3 -55 -7
-77 -10 -22 -3 -47 -8 -55 -11 -21 -9 -28 -10 -47 -12 -16 -1 -16 -2 -2 -17
11 -10 24 -13 43 -8 18 4 24 9 16 14 -23 14 6 18 50 8 76 -18 77 -19 50 -31
-23 -10 -21 -11 25 -16 67 -8 215 -2 215 9 0 4 -9 6 -20 3 -14 -4 -20 0 -20
11 0 9 -4 16 -10 16 -5 0 -10 -7 -10 -15 0 -23 -128 -24 -142 -2 -10 16 8 23
74 31 32 4 60 12 63 17 4 5 1 9 -5 9 -6 0 -8 5 -5 10 12 19 -52 10 -79 -11z"/>
<path d="M5172 8454 c-13 -6 -20 -14 -15 -17 8 -5 50 20 42 26 -2 2 -15 -2
-27 -9z"/>
<path d="M2895 8445 c-29 -14 -29 -14 -5 -14 35 -1 70 10 70 20 0 13 -30 10
-65 -6z"/>
<path d="M3415 8451 c-6 -11 33 -26 43 -16 4 3 0 10 -8 15 -19 12 -27 12 -35
1z"/>
<path d="M2790 8439 c0 -5 5 -7 10 -4 6 3 10 8 10 11 0 2 -4 4 -10 4 -5 0 -10
-5 -10 -11z"/>
<path d="M3265 8440 l-50 -7 43 -1 c26 -1 45 -7 48 -16 10 -25 33 -26 58 -1
13 13 21 26 18 29 -6 7 -48 5 -117 -4z"/>
<path d="M3556 8441 c-4 -5 -2 -12 3 -15 5 -4 12 -2 15 3 4 5 2 12 -3 15 -5 4
-12 2 -15 -3z"/>
<path d="M3685 8436 l-40 -12 29 -8 c21 -5 34 -3 44 8 22 22 13 25 -33 12z"/>
<path d="M3485 8430 c-3 -5 -2 -10 4 -10 5 0 13 5 16 10 3 6 2 10 -4 10 -5 0
-13 -4 -16 -10z"/>
<path d="M2958 8413 c7 -3 16 -2 19 1 4 3 -2 6 -13 5 -11 0 -14 -3 -6 -6z"/>
<path d="M6492 8403 c2 -9 8 -18 15 -20 7 -3 9 3 6 16 -6 25 -26 28 -21 4z"/>
<path d="M6540 8412 c0 -16 34 -32 67 -32 27 1 27 1 8 16 -11 8 -26 12 -33 9
-8 -3 -21 0 -28 6 -10 8 -14 8 -14 1z"/>
<path d="M7091 8401 c-9 -6 -10 -11 -2 -15 13 -8 31 1 31 15 0 11 -11 11 -29
0z"/>
<path d="M3115 8390 c-3 -5 1 -13 10 -16 22 -9 29 1 11 15 -10 8 -16 9 -21 1z"/>
<path d="M3170 8391 c0 -5 9 -7 20 -4 11 3 20 7 20 9 0 2 -9 4 -20 4 -11 0
-20 -4 -20 -9z"/>
<path d="M3240 8393 c8 -3 20 -10 26 -15 8 -5 14 -3 18 7 4 12 -2 15 -27 14
-18 0 -25 -3 -17 -6z"/>
<path d="M2930 8380 c0 -5 15 -10 33 -9 27 0 29 2 12 9 -28 12 -45 12 -45 0z"/>
<path d="M3690 8375 c0 -8 4 -15 10 -15 5 0 7 7 4 15 -4 8 -8 15 -10 15 -2 0
-4 -7 -4 -15z"/>
<path d="M5230 8382 c0 -4 11 -9 26 -10 14 -1 23 2 19 8 -7 12 -45 14 -45 2z"/>
<path d="M6788 8383 c7 -3 16 -2 19 1 4 3 -2 6 -13 5 -11 0 -14 -3 -6 -6z"/>
<path d="M3365 8371 c-5 -9 41 -8 50 0 3 4 -6 7 -20 7 -14 0 -27 -4 -30 -7z"/>
<path d="M3565 8370 c-4 -6 9 -10 32 -9 30 0 34 2 18 9 -27 12 -43 12 -50 0z"/>
<path d="M4850 8370 c0 -5 5 -10 11 -10 5 0 7 5 4 10 -3 6 -8 10 -11 10 -2 0
-4 -4 -4 -10z"/>
<path d="M5448 8373 c7 -3 16 -2 19 1 4 3 -2 6 -13 5 -11 0 -14 -3 -6 -6z"/>
<path d="M3493 8363 c9 -2 25 -2 35 0 9 3 1 5 -18 5 -19 0 -27 -2 -17 -5z"/>
<path d="M6905 8160 c-3 -5 -2 -10 4 -10 5 0 13 5 16 10 3 6 2 10 -4 10 -5 0
-13 -4 -16 -10z"/>
<path d="M7106 8151 c-16 -6 -17 -9 -5 -13 20 -8 69 2 69 13 0 11 -37 11 -64
0z"/>
<path d="M6900 8107 c-25 -11 -24 -11 9 -15 18 -2 38 1 43 6 14 14 -24 21 -52
9z"/>
<path d="M7088 8113 c7 -3 16 -2 19 1 4 3 -2 6 -13 5 -11 0 -14 -3 -6 -6z"/>
<path d="M5408 8051 c-3 -11 -27 -14 -254 -36 -87 -8 -162 -19 -167 -24 -6 -6
6 -14 29 -20 88 -24 725 -48 814 -31 38 7 56 7 60 -1 5 -7 9 -5 13 5 7 17 37
22 37 6 0 -13 57 -13 65 1 4 6 21 10 39 9 53 -3 68 -1 60 11 -4 7 -21 9 -40 6
-19 -3 -36 -1 -39 4 -4 5 -29 9 -57 9 -28 0 -98 7 -157 16 -68 10 -133 14
-181 10 -83 -7 -189 9 -197 30 -6 16 -20 18 -25 5z"/>
<path d="M4973 7813 c9 -2 23 -2 30 0 6 3 -1 5 -18 5 -16 0 -22 -2 -12 -5z"/>
<path d="M6663 7722 c-7 -5 -58 -9 -114 -10 -122 -1 -144 -11 -33 -14 43 -1
97 -2 119 -3 22 -1 52 -4 67 -8 15 -4 51 -2 80 5 29 6 45 13 36 16 -10 2 -18
8 -18 13 0 5 -16 9 -36 9 -21 0 -33 -4 -29 -10 4 -6 -6 -10 -24 -10 -16 0 -31
4 -33 10 -1 5 -9 6 -15 2z"/>
<path d="M6728 7553 c12 -2 30 -2 40 0 9 3 -1 5 -23 4 -22 0 -30 -2 -17 -4z"/>
<path d="M6598 7543 c6 -2 18 -2 25 0 6 3 1 5 -13 5 -14 0 -19 -2 -12 -5z"/>
<path d="M2880 6830 c0 -5 12 -10 28 -10 21 0 24 2 12 10 -20 13 -40 13 -40 0z"/>
<path d="M2990 6815 c-14 -8 -36 -14 -49 -15 -14 0 -39 -5 -56 -12 l-32 -11
46 -25 c38 -21 61 -25 131 -26 94 -1 164 10 155 25 -4 5 -10 7 -15 4 -5 -3
-11 4 -15 15 -6 20 -14 23 -90 35 -22 4 -42 11 -45 15 -3 5 -16 2 -30 -5z"/>
<path d="M2730 6700 c0 -5 5 -10 10 -10 6 0 10 5 10 10 0 6 -4 10 -10 10 -5 0
-10 -4 -10 -10z"/>
<path d="M2510 6499 c0 -5 5 -7 10 -4 6 3 10 8 10 11 0 2 -4 4 -10 4 -5 0 -10
-5 -10 -11z"/>
<path d="M2874 6403 c3 -7 -7 -13 -27 -16 -24 -3 -20 -4 16 -5 26 -1 47 2 47
8 0 6 9 6 26 0 14 -6 33 -10 42 -10 14 0 13 2 -3 14 -27 18 -107 26 -101 9z"/>
<path d="M2575 6396 c-18 -13 -18 -14 3 -25 23 -12 152 -15 152 -3 -1 31 -121
53 -155 28z"/>
<path d="M2406 6375 c10 -8 33 -14 49 -14 l30 1 -30 13 c-16 8 -39 14 -49 15
-20 0 -20 0 0 -15z"/>
<path d="M2274 6368 c-9 -14 84 -13 99 2 5 4 -14 7 -43 7 -28 0 -53 -4 -56 -9z"/>
<path d="M4668 6903 c17 -2 47 -2 65 0 17 2 3 4 -33 4 -36 0 -50 -2 -32 -4z"/>
<path d="M5325 6850 c28 -12 55 -12 55 0 0 6 -17 10 -37 9 -31 0 -34 -2 -18
-9z"/>
<path d="M5605 6410 c3 -5 10 -10 16 -10 5 0 9 5 9 10 0 6 -7 10 -16 10 -8 0
-12 -4 -9 -10z"/>
<path d="M5160 6400 c0 -5 6 -10 14 -10 8 0 18 5 21 10 3 6 -3 10 -14 10 -12
0 -21 -4 -21 -10z"/>
<path d="M4205 6380 c-4 -6 3 -10 14 -10 25 0 27 6 6 13 -8 4 -17 2 -20 -3z"/>
<path d="M4215 6340 c-11 -4 59 -8 154 -9 96 -1 173 0 170 3 -8 7 -304 13
-324 6z"/>
<path d="M4723 6344 c11 -11 87 -15 87 -4 0 6 -21 10 -47 10 -25 0 -43 -3 -40
-6z"/>
<path d="M4838 6343 c6 -2 18 -2 25 0 6 3 1 5 -13 5 -14 0 -19 -2 -12 -5z"/>
<path d="M4928 6343 c6 -2 18 -2 25 0 6 3 1 5 -13 5 -14 0 -19 -2 -12 -5z"/>
<path d="M3882 6333 c48 -2 129 -2 180 0 51 1 12 3 -87 3 -99 0 -141 -2 -93
-3z"/>
<path d="M4088 6133 c7 -3 16 -2 19 1 4 3 -2 6 -13 5 -11 0 -14 -3 -6 -6z"/>
<path d="M5404 6029 c-9 -16 12 -33 31 -25 14 5 15 9 5 21 -15 18 -26 19 -36
4z"/>
<path d="M5755 6020 c3 -5 10 -10 16 -10 5 0 9 5 9 10 0 6 -7 10 -16 10 -8 0
-12 -4 -9 -10z"/>
<path d="M4920 5995 c-345 -71 -597 -355 -626 -706 -20 -236 94 -504 273 -645
126 -99 228 -147 372 -174 267 -50 581 75 743 297 63 86 88 136 124 243 25 76
28 99 28 225 0 132 -2 145 -32 234 -68 197 -194 349 -372 449 -140 79 -347
110 -510 77z"/>
<path d="M5932 5900 c0 -14 2 -19 5 -12 2 6 2 18 0 25 -3 6 -5 1 -5 -13z"/>
<path d="M6084 5886 c-4 -9 -4 -20 0 -23 3 -4 12 -1 18 5 9 9 9 15 0 24 -9 9
-13 7 -18 -6z"/>
<path d="M6735 5510 c3 -5 10 -10 16 -10 5 0 9 5 9 10 0 6 -7 10 -16 10 -8 0
-12 -4 -9 -10z"/>
<path d="M5852 4821 c4 -13 18 -16 19 -4 0 4 -5 9 -11 12 -7 2 -11 -2 -8 -8z"/>
<path d="M3425 4730 c-8 -13 -1 -24 14 -19 6 3 7 10 2 18 -6 10 -10 10 -16 1z"/>
<path d="M5720 4132 c0 -29 5 -41 18 -45 9 -2 25 -8 35 -12 10 -4 17 -3 17 4
0 6 -11 16 -25 21 -17 7 -25 17 -25 34 0 14 -4 28 -10 31 -6 4 -10 -10 -10
-33z"/>
<path d="M5514 4067 c-7 -21 -2 -49 11 -54 11 -3 14 52 3 63 -4 4 -10 0 -14
-9z"/>
<path d="M5737 3713 c18 -2 50 -2 70 0 21 2 7 4 -32 4 -38 0 -55 -2 -38 -4z"/>
<path d="M1942 5288 c-14 -14 -16 -38 -4 -38 12 0 32 23 32 37 0 16 -12 17
-28 1z"/>
<path d="M1880 5230 c0 -5 7 -10 15 -10 8 0 15 5 15 10 0 6 -7 10 -15 10 -8 0
-15 -4 -15 -10z"/>
<path d="M8900 5230 c-12 -8 -9 -10 13 -10 15 0 27 5 27 10 0 13 -20 13 -40 0z"/>
<path d="M8415 5000 c-4 -6 10 -10 34 -10 23 0 41 5 41 10 0 6 -15 10 -34 10
-19 0 -38 -4 -41 -10z"/>
<path d="M8710 5000 c0 -5 14 -10 31 -10 17 0 28 4 24 10 -3 6 -17 10 -31 10
-13 0 -24 -4 -24 -10z"/>
<path d="M2575 4190 c-20 -4 -25 -9 -15 -13 37 -14 89 -26 140 -31 45 -4 51
-3 30 6 -72 31 -73 32 -53 39 24 10 -62 9 -102 -1z"/>
<path d="M6606 2747 c-18 -14 -15 -37 5 -37 6 0 7 5 4 10 -9 14 8 13 23 -2 16
-16 16 3 -1 25 -11 15 -15 16 -31 4z"/>
<path d="M6658 2743 c7 -3 16 -2 19 1 4 3 -2 6 -13 5 -11 0 -14 -3 -6 -6z"/>
<path d="M4515 2621 c-3 -5 -1 -12 5 -16 5 -3 10 1 10 9 0 18 -6 21 -15 7z"/>
<path d="M3230 2550 c-12 -8 -11 -10 8 -10 12 0 22 5 22 10 0 13 -11 13 -30 0z"/>
</g>
</svg>
